<svg width="19" height="14" viewBox="0 0 19 14" fill="none" xmlns="http://www.w3.org/2000/svg">
<g id="Arrow---Right-3">
<path id="Fill-1" opacity="0.4" d="M1.04246 6.15202L10.0072 6.15202C10.4219 6.15202 10.7585 6.53179 10.7585 6.99972C10.7585 7.46764 10.4219 7.84741 10.0072 7.84741L1.04246 7.84741C0.627729 7.84741 0.291138 7.46764 0.291138 6.99972C0.291138 6.53179 0.627729 6.15202 1.04246 6.15202Z" fill="black"/>
<g id="Group-5">
<g id="Mask group">
<mask id="mask0_194_85" style="mask-type:luminance" maskUnits="userSpaceOnUse" x="9" y="0" width="10" height="14">
<g id="Group">
<path id="Vector" d="M9.2561 13.5V0.500001H18.7088V13.5H9.2561Z" fill="white"/>
</g>
</mask>
<g mask="url(#mask0_194_85)">
<path id="Fill-3" d="M10.0074 0.499661C10.1477 0.499661 10.2859 0.543741 10.4081 0.629641L18.3581 6.28208C18.5765 6.43806 18.7097 6.70819 18.7097 6.9998C18.7097 7.29141 18.5765 7.56154 18.3581 7.71752L10.4081 13.37C10.1767 13.5338 9.88421 13.544 9.64479 13.3937C9.40436 13.2445 9.2561 12.9608 9.2561 12.6522V1.34736C9.2561 1.0388 9.40436 0.7551 9.64479 0.605906C9.75799 0.534699 9.88321 0.499661 10.0074 0.499661Z" fill="black"/>
</g>
</g>
</g>
</g>
</svg>
