<svg width="476" height="461" viewBox="0 0 476 461" fill="none" xmlns="http://www.w3.org/2000/svg">
<g opacity="0.7">
<path d="M415.072 127.476C393.243 95.6944 351.745 76.821 311.628 80.4537C271.51 84.0864 234.592 109.958 219.588 145.095C211.877 163 209.44 183.118 198.016 199.152C186.259 215.6 166.686 225.411 147.465 233.607C128.244 241.804 109.747 244.745 94.5907 258.501C79.4349 272.257 68.8867 298.995 77.807 316.919C86.9176 335.138 109.937 342.422 126.549 355.145C143.162 367.869 153.748 386.585 170.722 398.885C186.402 410.244 206.613 415.25 226.424 415.213C246.235 415.177 265.751 410.382 284.258 403.753C341.692 383.202 395.794 344.957 418.699 291.426C461.101 192.329 415.072 127.476 415.072 127.476Z" fill="#3DB0F8"/>
</g>
<g opacity="0.3">
<path d="M415.072 127.476C393.243 95.6944 351.745 76.821 311.628 80.4537C271.51 84.0864 234.592 109.958 219.588 145.095C211.877 163 209.44 183.118 198.016 199.152C186.259 215.6 166.686 225.411 147.465 233.607C128.244 241.804 109.747 244.745 94.5907 258.501C79.4349 272.257 68.8867 298.995 77.807 316.919C86.9176 335.138 109.937 342.422 126.549 355.145C143.162 367.869 153.748 386.585 170.722 398.885C186.402 410.244 206.613 415.25 226.424 415.213C246.235 415.177 265.751 410.382 284.258 403.753C341.692 383.202 395.794 344.957 418.699 291.426C461.101 192.329 415.072 127.476 415.072 127.476Z" fill="white"/>
</g>
<path d="M90.716 324.046C93.5608 323.084 96.6021 322.795 99.5857 323.203C102.569 323.612 105.409 324.706 107.866 326.395C110.324 328.084 112.328 330.318 113.712 332.91C115.096 335.503 115.819 338.378 115.82 341.297V341.407C116.395 340.696 117.118 340.111 117.942 339.689C118.767 339.268 119.674 339.02 120.604 338.961C121.534 338.903 122.467 339.036 123.34 339.351C124.214 339.666 125.009 340.156 125.673 340.79C126.099 337.155 127.939 333.814 130.819 331.447C133.699 329.08 137.402 327.866 141.174 328.052C144.947 328.237 148.504 329.809 151.121 332.446C153.739 335.084 155.219 338.589 155.262 342.246C156.01 341.725 156.91 341.447 157.832 341.453C158.893 341.451 159.92 341.814 160.729 342.478C161.539 343.142 162.077 344.063 162.249 345.077H57.2723C57.2648 342.617 57.9879 340.207 59.3553 338.134C60.7228 336.061 62.677 334.413 64.9848 333.386C67.2927 332.359 69.8568 331.996 72.3716 332.341C74.8864 332.686 77.2457 333.724 79.1683 335.331C80.1253 332.672 81.7019 330.261 83.776 328.287" stroke="#263238" stroke-linecap="round" stroke-linejoin="round"/>
<path d="M136.136 154.795H241.075C241.082 152.335 240.359 149.925 238.992 147.852C237.624 145.779 235.67 144.131 233.362 143.103C231.055 142.076 228.49 141.713 225.976 142.058C223.461 142.403 221.101 143.442 219.179 145.049C217.72 140.969 214.816 137.521 210.982 135.317C207.148 133.113 202.631 132.296 198.234 133.011C193.837 133.727 189.844 135.927 186.963 139.223C184.083 142.519 182.501 146.696 182.498 151.014V151.125C181.924 150.414 181.201 149.828 180.376 149.407C179.552 148.985 178.645 148.737 177.715 148.679C176.784 148.621 175.852 148.753 174.978 149.068C174.105 149.383 173.309 149.874 172.645 150.507C172.22 146.872 170.38 143.531 167.5 141.165C164.62 138.798 160.917 137.584 157.144 137.769C153.372 137.955 149.815 139.527 147.197 142.164C144.58 144.802 143.099 148.306 143.057 151.964C142.309 151.443 141.409 151.165 140.487 151.171C139.437 151.184 138.426 151.554 137.631 152.216C136.835 152.879 136.306 153.792 136.136 154.795Z" stroke="#263238" stroke-miterlimit="10"/>
<path d="M164.696 91.9511C164.085 91.8095 163.487 91.6215 162.906 91.3886C161.83 90.983 160.44 90.2915 159.003 89.6184C157.808 89.0412 156.52 88.667 155.195 88.512C154.176 88.4014 153.481 88.512 153.386 88.2446C153.291 87.9772 153.891 87.507 155.128 87.3226C156.722 87.1176 158.343 87.3877 159.774 88.0971C161.121 88.7676 162.346 89.6458 163.401 90.6971C164.229 91.4347 164.696 91.9511 164.696 91.9511Z" fill="#999999"/>
<path d="M171.008 87.0552C171.008 87.0552 170.494 87.2396 169.713 87.5439C168.932 87.8482 167.961 88.2723 166.857 88.7333C164.686 89.6553 162.849 90.5773 162.544 90.1993C162.402 90.0056 162.687 89.5354 163.316 88.9546C164.144 88.1774 165.112 87.5526 166.172 87.1106C167.249 86.6549 168.434 86.4954 169.599 86.6496C169.948 86.6935 170.293 86.7707 170.627 86.8801L171.008 87.0552Z" fill="#999999"/>
<path d="M153.063 95.6022L152.71 95.3901C152.491 95.2518 152.158 95.0674 151.758 94.8646C150.742 94.3342 149.681 93.887 148.588 93.5277C146.075 92.6057 143.828 92.8454 143.752 92.4766C143.752 92.3106 144.266 92.034 145.237 91.8957C146.522 91.747 147.825 91.8858 149.045 92.3014C150.258 92.7179 151.342 93.4253 152.196 94.3575C152.453 94.6444 152.682 94.953 152.882 95.2795L153.063 95.6022Z" fill="#999999"/>
<path d="M155.538 90.5588C155.538 90.5588 155.176 90.7709 154.633 91.0659L152.625 92.2C151.101 93.0114 149.93 93.9518 149.645 93.6936C149.512 93.5738 149.645 93.1865 150.026 92.6794C150.541 92.0221 151.189 91.4732 151.93 91.0659C152.696 90.6694 153.555 90.4694 154.424 90.4851C154.797 90.4659 155.171 90.4906 155.538 90.5588Z" fill="#999999"/>
<path d="M150.978 87.6914C150.978 87.6914 150.13 87.3964 148.826 86.8708C147.522 86.3453 145.761 85.58 143.847 84.9715C142.221 84.4394 140.506 84.208 138.792 84.2892C137.478 84.363 136.64 84.6027 136.517 84.3814C136.393 84.1602 137.097 83.5148 138.573 83.0906C140.497 82.6124 142.524 82.6958 144.399 83.3304C146.199 83.9393 147.86 84.8784 149.293 86.0964C149.885 86.5971 150.447 87.1296 150.978 87.6914Z" fill="#999999"/>
<path d="M156.766 80.5736L156.28 80.7027L155.005 81.0715C153.686 81.4924 152.392 81.9849 151.13 82.5467C148.207 83.819 146.322 85.6999 145.913 85.3956C145.732 85.2573 145.97 84.5658 146.722 83.6715C147.727 82.5144 148.99 81.5938 150.416 80.9793C151.834 80.3623 153.388 80.0992 154.938 80.214C155.4 80.2526 155.859 80.3266 156.309 80.4353L156.766 80.5736Z" fill="#999999"/>
<path d="M304.402 67.3705H409.36C409.357 63.9658 407.959 60.7014 405.472 58.2948C402.986 55.8882 399.614 54.5363 396.099 54.5363C392.951 54.5393 389.91 55.6389 387.531 57.6342C386.092 53.5274 383.191 50.0507 379.347 47.8267C375.503 45.6028 370.967 44.7768 366.551 45.4968C362.135 46.2167 358.128 48.4356 355.248 51.756C352.368 55.0764 350.802 59.2814 350.831 63.618V63.7286C350.257 63.0175 349.533 62.432 348.709 62.0104C347.885 61.5889 346.978 61.3408 346.047 61.2825C345.117 61.2242 344.184 61.3569 343.311 61.672C342.437 61.9871 341.642 62.4774 340.978 63.1109C340.554 59.4779 338.716 56.1379 335.839 53.7708C332.962 51.4038 329.261 50.1875 325.491 50.3696C321.72 50.5517 318.163 52.1185 315.544 54.7511C312.924 57.3837 311.438 60.8841 311.39 64.54C310.643 64.0145 309.742 63.7364 308.819 63.7471C307.759 63.7445 306.732 64.1076 305.922 64.7716C305.113 65.4355 304.574 66.3568 304.402 67.3705Z" stroke="#263238" stroke-miterlimit="10"/>
<path d="M423.307 178.269V415.518H165.562V185.497C165.562 183.58 166.349 181.741 167.748 180.386C169.148 179.03 171.046 178.269 173.026 178.269H423.307Z" fill="#3DB0F8" stroke="#263238" stroke-linecap="round" stroke-linejoin="round"/>
<path d="M423.307 178.269V415.518H165.562V185.497C165.562 183.58 166.349 181.741 167.748 180.386C169.148 179.03 171.046 178.269 173.026 178.269H423.307Z" fill="#BFBFBF" stroke="#263238" stroke-linecap="round" stroke-linejoin="round"/>
<path d="M426.42 177.909H161.745V195.436H426.42V177.909Z" fill="white" stroke="#263238" stroke-linecap="round" stroke-linejoin="round"/>
<path d="M336.189 184.04H342.72H336.189Z" fill="white"/>
<path d="M336.189 184.04H342.72" stroke="#263238" stroke-miterlimit="10"/>
<path d="M330.601 184.04H325.917C325.922 184.059 325.922 184.078 325.917 184.096L330.601 184.04Z" fill="white" stroke="#263238" stroke-miterlimit="10"/>
<path d="M322.423 184.04H240.466C267.645 184.363 295.272 184.391 322.433 184.133C322.433 184.105 322.423 184.068 322.423 184.04Z" fill="white" stroke="#263238" stroke-miterlimit="10"/>
<path d="M407.684 343.104H422.345V337.609H407.684V343.104Z" fill="white" stroke="#263238" stroke-miterlimit="10"/>
<path d="M390.672 343.104H405.333V337.609H390.672V343.104Z" fill="white" stroke="#263238" stroke-miterlimit="10"/>
<path d="M399.021 336.087H413.682V330.592H399.021V336.087Z" fill="white" stroke="#263238" stroke-miterlimit="10"/>
<path d="M218.113 323.207H203.452V328.702H218.113V323.207Z" fill="white" stroke="#263238" stroke-miterlimit="10"/>
<path d="M235.134 323.207H220.474V328.702H235.134V323.207Z" fill="white" stroke="#263238" stroke-miterlimit="10"/>
<path d="M226.785 330.233H212.125V335.728H226.785V330.233Z" fill="white" stroke="#263238" stroke-miterlimit="10"/>
<path d="M250.928 350.959H188.877V415.518H250.928V350.959Z" fill="white" stroke="#263238" stroke-linecap="round" stroke-linejoin="round"/>
<path d="M246.892 354.574H192.913V415.518H246.892V354.574Z" fill="#263238" stroke="#999999" stroke-linecap="round" stroke-linejoin="round"/>
<path d="M210.773 358.197H196.312V388.024H210.773V358.197Z" fill="white" stroke="#263238" stroke-linecap="round" stroke-linejoin="round"/>
<path d="M227.338 358.197H212.877V388.024H227.338V358.197Z" fill="white" stroke="#263238" stroke-linecap="round" stroke-linejoin="round"/>
<path d="M243.902 358.197H229.442V388.024H243.902V358.197Z" fill="white" stroke="#263238" stroke-linecap="round" stroke-linejoin="round"/>
<path d="M243.95 392.136H196.359V415.518H243.95V392.136Z" fill="white" stroke="#263238" stroke-linecap="round" stroke-linejoin="round"/>
<path d="M221.968 391.629H219.169V415.518H221.968V391.629Z" fill="#263238"/>
<path d="M195.531 415.13H245.302" stroke="#263238" stroke-miterlimit="10"/>
<path d="M327.231 350.959H265.18V415.518H327.231V350.959Z" fill="white" stroke="#263238" stroke-linecap="round" stroke-linejoin="round"/>
<path d="M323.194 354.574H269.216V415.518H323.194V354.574Z" fill="#263238" stroke="#999999" stroke-linecap="round" stroke-linejoin="round"/>
<path d="M287.076 358.197H272.615V388.024H287.076V358.197Z" fill="white" stroke="#263238" stroke-linecap="round" stroke-linejoin="round"/>
<path d="M303.64 358.197H289.179V388.024H303.64V358.197Z" fill="white" stroke="#263238" stroke-linecap="round" stroke-linejoin="round"/>
<path d="M320.205 358.197H305.744V388.024H320.205V358.197Z" fill="white" stroke="#263238" stroke-linecap="round" stroke-linejoin="round"/>
<path d="M320.253 392.136H272.662V415.518H320.253V392.136Z" fill="white" stroke="#263238" stroke-linecap="round" stroke-linejoin="round"/>
<path d="M298.281 391.629H295.472V415.518H298.281V391.629Z" fill="#263238"/>
<path d="M271.834 415.13H321.605" stroke="#263238" stroke-miterlimit="10"/>
<path d="M403.534 350.959H341.482V415.518H403.534V350.959Z" fill="white" stroke="#263238" stroke-linecap="round" stroke-linejoin="round"/>
<path d="M399.497 354.574H345.519V415.518H399.497V354.574Z" fill="#263238" stroke="#999999" stroke-linecap="round" stroke-linejoin="round"/>
<path d="M363.378 358.197H348.917V388.024H363.378V358.197Z" fill="white" stroke="#263238" stroke-linecap="round" stroke-linejoin="round"/>
<path d="M379.943 358.197H365.482V388.024H379.943V358.197Z" fill="white" stroke="#263238" stroke-linecap="round" stroke-linejoin="round"/>
<path d="M396.508 358.197H382.047V388.024H396.508V358.197Z" fill="white" stroke="#263238" stroke-linecap="round" stroke-linejoin="round"/>
<path d="M396.565 392.136H348.975V415.518H396.565V392.136Z" fill="white" stroke="#263238" stroke-linecap="round" stroke-linejoin="round"/>
<path d="M374.583 391.629H371.785V415.518H374.583V391.629Z" fill="#263238"/>
<path d="M348.137 415.13H397.907" stroke="#263238" stroke-miterlimit="10"/>
<path d="M249.976 224.71H187.925V318.699H249.976V224.71Z" fill="white" stroke="#263238" stroke-linecap="round" stroke-linejoin="round"/>
<path d="M245.94 228.324H191.961V314.181H245.94V228.324Z" fill="#263238" stroke="#999999" stroke-linecap="round" stroke-linejoin="round"/>
<path d="M209.821 231.938H195.36V261.765H209.821V231.938Z" fill="white" stroke="#263238" stroke-linecap="round" stroke-linejoin="round"/>
<path d="M226.386 231.938H211.925V261.765H226.386V231.938Z" fill="white" stroke="#263238" stroke-linecap="round" stroke-linejoin="round"/>
<path d="M242.95 231.938H228.49V261.765H242.95V231.938Z" fill="white" stroke="#263238" stroke-linecap="round" stroke-linejoin="round"/>
<path d="M242.998 265.886H195.407V310.17H242.998V265.886Z" fill="white" stroke="#263238" stroke-linecap="round" stroke-linejoin="round"/>
<path d="M221.016 265.379H218.217V313.581H221.016V265.379Z" fill="#263238"/>
<path d="M194.579 288.881H244.35" stroke="#263238" stroke-miterlimit="10"/>
<path d="M251.909 314.439H185.897V318.265H251.909V314.439Z" fill="#999999" stroke="#263238" stroke-linecap="round" stroke-linejoin="round"/>
<path d="M326.279 224.71H264.228V318.699H326.279V224.71Z" fill="white" stroke="#263238" stroke-linecap="round" stroke-linejoin="round"/>
<path d="M322.242 228.324H268.264V314.181H322.242V228.324Z" fill="#263238" stroke="#999999" stroke-linecap="round" stroke-linejoin="round"/>
<path d="M286.124 231.938H271.663V261.765H286.124V231.938Z" fill="white" stroke="#263238" stroke-linecap="round" stroke-linejoin="round"/>
<path d="M302.688 231.938H288.228V261.765H302.688V231.938Z" fill="white" stroke="#263238" stroke-linecap="round" stroke-linejoin="round"/>
<path d="M319.253 231.938H304.792V261.765H319.253V231.938Z" fill="white" stroke="#263238" stroke-linecap="round" stroke-linejoin="round"/>
<path d="M319.301 265.886H271.71V310.17H319.301V265.886Z" fill="white" stroke="#263238" stroke-linecap="round" stroke-linejoin="round"/>
<path d="M297.319 265.379H294.52V313.581H297.319V265.379Z" fill="#263238"/>
<path d="M270.882 288.881H320.653" stroke="#263238" stroke-miterlimit="10"/>
<path d="M328.212 314.439H262.2V318.265H328.212V314.439Z" fill="#999999" stroke="#263238" stroke-linecap="round" stroke-linejoin="round"/>
<path d="M402.582 224.71H340.53V318.699H402.582V224.71Z" fill="white" stroke="#263238" stroke-linecap="round" stroke-linejoin="round"/>
<path d="M398.545 228.324H344.567V314.181H398.545V228.324Z" fill="#263238" stroke="#999999" stroke-linecap="round" stroke-linejoin="round"/>
<path d="M362.426 231.938H347.965V261.765H362.426V231.938Z" fill="white" stroke="#263238" stroke-linecap="round" stroke-linejoin="round"/>
<path d="M378.991 231.938H364.53V261.765H378.991V231.938Z" fill="white" stroke="#263238" stroke-linecap="round" stroke-linejoin="round"/>
<path d="M395.556 231.938H381.095V261.765H395.556V231.938Z" fill="white" stroke="#263238" stroke-linecap="round" stroke-linejoin="round"/>
<path d="M395.613 265.886H348.023V310.17H395.613V265.886Z" fill="white" stroke="#263238" stroke-linecap="round" stroke-linejoin="round"/>
<path d="M373.631 265.379H370.833V313.581H373.631V265.379Z" fill="#263238"/>
<path d="M347.185 288.881H396.955" stroke="#263238" stroke-miterlimit="10"/>
<path d="M404.514 314.439H338.503V318.265H404.514V314.439Z" fill="#999999" stroke="#263238" stroke-linecap="round" stroke-linejoin="round"/>
<path d="M332.124 205.025H317.463V210.52H332.124V205.025Z" fill="white" stroke="#263238" stroke-miterlimit="10"/>
<path d="M349.146 205.025H334.485V210.52H349.146V205.025Z" fill="white" stroke="#263238" stroke-miterlimit="10"/>
<path d="M340.797 212.042H326.136V217.537H340.797V212.042Z" fill="white" stroke="#263238" stroke-miterlimit="10"/>
<path d="M156.347 190.006L160.755 191.988L164.563 187.876L166.01 183.22L167.038 181.505C166.873 181.208 166.617 180.968 166.305 180.819C165.992 180.67 165.639 180.62 165.296 180.675C164.134 180.906 166.057 178.508 167.314 177.909C168.419 177.443 169.554 177.049 170.713 176.729C170.713 176.729 169.837 175.06 167.066 175.097C164.296 175.134 160.755 178.868 160.755 178.868C160.755 178.868 156.851 184.197 156.347 190.006Z" fill="white" stroke="#263238" stroke-linecap="round" stroke-linejoin="round"/>
<path d="M170.989 390.688C170.989 390.688 168.571 396.755 164.839 396.082C161.428 395.45 157.963 395.141 154.49 395.16C153.12 395.317 146.665 396.912 145.323 393.62C144.047 390.467 146.646 387.498 147.769 386.097C149.13 386.661 150.601 386.932 152.081 386.89C153.56 386.849 155.013 386.496 156.337 385.857L165.02 390.467C165.873 389.465 167.095 388.824 168.428 388.678C168.739 388.589 169.068 388.574 169.386 388.636C169.704 388.697 170.002 388.833 170.254 389.03C170.507 389.228 170.705 389.483 170.833 389.772C170.961 390.06 171.014 390.375 170.989 390.688Z" fill="#999999" stroke="#263238" stroke-linecap="round" stroke-linejoin="round"/>
<path d="M156.242 385.829L156.366 385.894C155.041 386.533 153.589 386.886 152.109 386.927C150.63 386.969 149.159 386.698 147.798 386.134L147.95 385.94C148.978 384.631 147.522 372.949 147.522 372.949V372.285C150.94 368.689 156.699 371.188 156.699 371.188L156.242 385.829Z" fill="white" stroke="#263238" stroke-linecap="round" stroke-linejoin="round"/>
<path d="M169.57 336.53C167.666 339.812 165.477 339.637 163.934 342.062C162.392 344.487 161.183 346.672 158.127 346.626C157.552 346.654 156.981 346.512 156.49 346.22C155.252 345.4 155.433 343.51 154.928 341.997C154.557 340.9 154.386 340.209 154.176 339.397C155.376 339.508 156.385 339.222 156.452 338.245C156.842 332.298 158.632 332.012 160.831 330.74L160.774 331.016C169.942 331.772 171.465 333.257 169.57 336.53Z" fill="#999999" stroke="#263238" stroke-linecap="round" stroke-linejoin="round"/>
<path d="M161.65 325.199C161.44 327.236 160.983 329.928 160.831 330.777C158.632 332.049 156.842 332.335 156.452 338.282C156.385 339.259 155.376 339.545 154.176 339.434C154.005 338.807 153.796 338.116 153.434 337.102C153.072 336.087 153.243 333.57 153.548 330.869C153.767 328.942 154.062 326.95 154.3 325.448C156.751 325.68 159.222 325.596 161.65 325.199Z" fill="white" stroke="#263238" stroke-linecap="round" stroke-linejoin="round"/>
<path d="M161.64 325.199C159.216 325.601 156.747 325.685 154.3 325.448C154.529 323.972 154.71 322.967 154.71 322.967C158.518 320.349 161.374 321.52 161.678 322.967C161.768 323.709 161.755 324.46 161.64 325.199Z" fill="white" stroke="#263238" stroke-linecap="round" stroke-linejoin="round"/>
<path d="M167.838 293.463C165.163 303.467 165.467 324.526 164.182 324.811C163.23 324.987 162.421 325.125 161.64 325.236C159.216 325.638 156.747 325.721 154.3 325.484C152.263 325.263 153.082 328.628 153.548 330.906C153.243 333.607 153.091 336.189 153.434 337.139C154.262 339.444 154.262 340.098 154.929 342.08C155.433 343.593 155.252 345.473 156.49 346.294C161.992 346.432 158.394 372.986 158.07 373.899C157.642 375.226 145.97 379.283 145.285 379.209C143.828 366.449 145.285 346.764 141.077 334.603C138.115 326.383 134.565 318.373 130.453 310.631C126.857 309.043 123.807 306.489 121.664 303.273C119.521 300.057 118.375 296.314 118.362 292.486C120.866 290.642 123.808 288.503 126.311 286.622C128.137 285.131 130.149 283.867 132.299 282.86C134.473 281.849 136.96 281.664 139.268 282.344C139.611 282.916 140.22 283.432 140.553 284.004C148.368 281.018 157.083 281.134 164.81 284.326C168.009 285.617 168.723 290.19 167.838 293.463Z" fill="#263238" stroke="#263238" stroke-linecap="round" stroke-linejoin="round"/>
<path d="M152.548 286.069C150.706 287.648 149.216 289.574 148.169 291.73C147.873 292.228 147.728 292.797 147.75 293.371C147.77 293.656 147.89 293.925 148.092 294.134C148.293 294.342 148.563 294.477 148.855 294.514" stroke="#7F7F7F" stroke-width="0.75" stroke-linecap="round" stroke-linejoin="round"/>
<path d="M160.241 296.792C158.399 303.261 155.882 309.533 152.729 315.508" stroke="#7F7F7F" stroke-width="0.75" stroke-linecap="round" stroke-linejoin="round"/>
<path d="M163.934 297.557C163.351 304.405 161.955 311.165 159.774 317.703" stroke="#7F7F7F" stroke-width="0.75" stroke-linecap="round" stroke-linejoin="round"/>
<path d="M164.22 292.117C164.22 293.122 164.163 294.127 164.106 295.141" stroke="#7F7F7F" stroke-width="0.75" stroke-linecap="round" stroke-linejoin="round"/>
<path d="M122.951 300.627C122.328 299.579 122.109 298.351 122.332 297.161" stroke="#7F7F7F" stroke-width="0.75" stroke-linecap="round" stroke-linejoin="round"/>
<path d="M149.683 300.231C141.848 303.338 132.328 306.316 124.445 302.416" stroke="#7F7F7F" stroke-width="0.75" stroke-linecap="round" stroke-linejoin="round"/>
<path d="M152.32 324.719C146.941 318.929 151.539 311.452 150.416 304.103C150.416 303.181 149.397 301.337 149.692 300.231" stroke="#7F7F7F" stroke-width="0.75" stroke-linecap="round" stroke-linejoin="round"/>
<path d="M151.892 292.025C153.435 290.376 155.177 288.912 157.08 287.664C157.229 287.539 157.403 287.444 157.591 287.385C157.78 287.327 157.978 287.305 158.175 287.323C158.756 287.461 158.917 288.245 158.613 288.761C158.254 289.228 157.755 289.576 157.185 289.757" stroke="#7F7F7F" stroke-width="0.75" stroke-linecap="round" stroke-linejoin="round"/>
<path d="M149.14 336.954C146.925 342.366 145.068 347.909 143.581 353.55" stroke="#7F7F7F" stroke-width="0.75" stroke-linecap="round" stroke-linejoin="round"/>
<path d="M151.815 330.878C151.301 331.975 150.806 333.073 150.321 334.179" stroke="#7F7F7F" stroke-width="0.75" stroke-linecap="round" stroke-linejoin="round"/>
<path d="M146.265 337.452L143.933 341.14" stroke="#7F7F7F" stroke-width="0.75" stroke-linecap="round" stroke-linejoin="round"/>
<path d="M154.586 359.691C153.021 365.38 150.871 370.902 148.169 376.176" stroke="#7F7F7F" stroke-width="0.75" stroke-linecap="round" stroke-linejoin="round"/>
<path d="M155.947 353.947C155.712 355.102 155.455 356.255 155.176 357.404" stroke="#7F7F7F" stroke-width="0.75" stroke-linecap="round" stroke-linejoin="round"/>
<path d="M134.518 308.16L144.38 301.937" stroke="#7F7F7F" stroke-width="0.75" stroke-linecap="round" stroke-linejoin="round"/>
<path d="M167.171 333.902C167.171 333.902 165.857 333.902 164.125 336.788C162.392 339.674 162.573 340.301 160.897 341.186C157.927 342.744 158.041 344.017 158.041 344.017" stroke="#263238" stroke-linecap="round" stroke-linejoin="round"/>
<path d="M149.321 301.181C151.272 296.881 154.742 293.396 159.108 291.352" stroke="#7F7F7F" stroke-width="0.75" stroke-linecap="round" stroke-linejoin="round"/>
<path d="M140.191 226.093C140.191 226.093 135.155 228.213 135.089 231.671C135.022 235.128 142.324 242.799 142.295 241.979C142.267 241.158 157.08 222.34 157.08 222.34L161.688 193.989L162.087 190.301C162.087 190.301 160.022 185.783 157.327 187.009C156.699 187.295 155.861 189.121 154.833 191.675C151.482 199.973 148.169 215.462 148.169 215.462L140.191 226.093Z" fill="white" stroke="#263238" stroke-linecap="round" stroke-linejoin="round"/>
<path d="M134.146 228.767C133.099 229.043 119.485 236.742 116.391 243.141C113.926 248.23 117.534 269.786 114.716 288.254C114.288 291.103 118.457 291.841 118.457 291.841L139.268 282.27L141.915 267.315L142.867 242.809C142.867 242.809 141.629 226.812 134.146 228.767Z" fill="#3DB0F8" stroke="#263238" stroke-linecap="round" stroke-linejoin="round"/>
<path d="M118.933 288.254C123.286 285.713 127.003 282.268 129.815 278.167" stroke="#263238" stroke-linecap="round" stroke-linejoin="round"/>
<path d="M121.437 280.288C130.463 270.057 137.1 258.059 140.896 245.114" stroke="#263238" stroke-linecap="round" stroke-linejoin="round"/>
<path d="M147.855 227.273C145.561 231.611 143.788 236.189 142.572 240.919" stroke="#263238" stroke-linecap="round" stroke-linejoin="round"/>
<path d="M155.49 205.403C154.375 209.825 153.558 214.312 153.044 218.837C152.425 218.044 151.796 217.26 151.14 216.467" stroke="#263238" stroke-linecap="round" stroke-linejoin="round"/>
<path d="M156.176 190.375C158.137 190.784 159.929 191.746 161.326 193.141" stroke="#263238" stroke-linecap="round" stroke-linejoin="round"/>
<path d="M118.276 240.817C117.458 241.204 112.612 249.3 121.332 259.064C126.662 265.005 132.79 270.227 139.554 274.59C139.554 274.59 152.51 265.029 159.412 251.826L155.652 245.372C155.652 245.372 139.649 260.926 139.715 261.442C139.944 263.24 127.844 236.299 118.276 240.817Z" fill="white" stroke="#263238" stroke-linecap="round" stroke-linejoin="round"/>
<path d="M152.606 248.175C152.528 249.698 152.986 251.202 153.907 252.44C154.827 253.678 156.154 254.576 157.67 254.988L156.585 254.878" stroke="#263238" stroke-linecap="round" stroke-linejoin="round"/>
<path d="M116.639 246.58C116.266 248.774 116.64 251.027 117.705 252.998C118.769 254.969 120.467 256.551 122.541 257.505" stroke="#263238" stroke-linecap="round" stroke-linejoin="round"/>
<path d="M155.062 245.676L159.603 240.393L161.602 238.272L162.259 236.428C162.259 236.428 164.515 236.124 163.753 237.784C162.992 239.443 162.392 240.642 162.392 240.642L165.248 239.665L169.427 240.522L168.989 242.292C168.989 242.292 170.655 242.67 170.484 243.657C170.313 244.643 170.903 245.501 170.417 246.423C169.932 247.345 167.352 246.976 167.352 246.976C167.352 246.976 168.418 248.018 167.285 248.691C166.152 249.364 158.67 251.761 158.67 251.761C158.67 251.761 155.024 250.351 155.062 245.676Z" fill="white" stroke="#263238" stroke-linecap="round" stroke-linejoin="round"/>
<path d="M118.362 291.961L118.267 293.426C118.249 293.766 118.275 294.107 118.343 294.441C118.395 294.612 118.487 294.77 118.612 294.902C118.737 295.033 118.891 295.135 119.064 295.199C119.236 295.264 119.421 295.288 119.605 295.272C119.789 295.256 119.966 295.198 120.123 295.105C124.56 292.486 138.678 284.206 141.067 283.598L139.249 282.27L118.362 291.961Z" fill="#3DB0F8" stroke="#263238" stroke-linecap="round" stroke-linejoin="round"/>
<path d="M136.859 266.532C137.751 264.123 139.223 261.954 141.153 260.207" stroke="#263238" stroke-linecap="round" stroke-linejoin="round"/>
<path d="M134.156 265.536C135.085 263.942 136.488 262.657 138.183 261.848" stroke="#263238" stroke-linecap="round" stroke-linejoin="round"/>
<path d="M123.76 238.024L121.523 229.578L116.277 224.479L112.469 217.574L116.449 211.59L120.99 208.298L123.655 208.51L125.559 210.096C125.559 210.096 130.805 214.088 130.938 215.278C131.071 216.467 131.262 217.564 131.262 217.564C132.629 218.306 133.907 219.193 135.07 220.21C136.022 221.363 133.756 221.28 134.299 222.976C134.841 224.673 136.84 228.047 135.06 229.154C133.28 230.26 132.28 230.795 132.947 232.501C133.508 234.541 133.937 236.614 134.232 238.706L123.76 238.024Z" fill="white" stroke="#263238" stroke-linecap="round" stroke-linejoin="round"/>
<path d="M122.427 228.416V228.61L122.037 231.542C119.281 230.442 116.68 229.007 114.297 227.273L113.878 226.95C116.222 222.946 119.135 219.281 122.532 216.061L122.322 216.845L121.704 219.224L121.989 222.912C121.613 222.737 121.196 222.662 120.78 222.692C120.364 222.723 119.963 222.859 119.619 223.087C118.514 223.898 118.476 225.65 119.533 227.006C119.849 227.462 120.282 227.832 120.789 228.079C121.296 228.327 121.86 228.443 122.427 228.416Z" fill="#999999" stroke="#263238" stroke-linecap="round" stroke-linejoin="round"/>
<path d="M121.351 214.918L122.57 215.979V216.061C119.173 219.281 116.26 222.946 113.916 226.95C108.652 222.737 110.108 219.454 110.108 219.454C105.482 211.802 115.449 209.469 115.449 209.469C114.868 209.337 114.352 209.014 113.989 208.555C113.626 208.096 113.439 207.53 113.459 206.952L117.848 206.288C116.601 204.822 117.848 202.785 117.848 202.785L120.809 205.551C120.076 203.522 122.484 201.807 122.713 201.632C122.608 201.798 121.837 203.218 124.683 207.505C127.701 212.115 121.351 214.918 121.351 214.918Z" fill="#263238" stroke="#263238" stroke-linecap="round" stroke-linejoin="round"/>
<path d="M129.472 218.118C129.681 218.496 129.662 218.901 129.424 219.04C129.186 219.178 128.834 218.957 128.625 218.579C128.415 218.201 128.434 217.795 128.625 217.657C128.815 217.518 129.282 217.74 129.472 218.118Z" fill="#263238"/>
<path d="M126.692 217.684C126.671 217.377 126.719 217.069 126.834 216.782C126.949 216.495 127.128 216.236 127.357 216.023C127.587 215.81 127.862 215.649 128.164 215.55C128.465 215.452 128.785 215.418 129.101 215.453" stroke="#263238" stroke-linecap="round" stroke-linejoin="round"/>
<path d="M112.802 217.343C113.067 215.986 113.749 214.739 114.758 213.763C115.767 212.788 117.056 212.13 118.457 211.876C123.446 210.889 117.896 207.266 117.896 207.266" stroke="#7F7F7F" stroke-width="0.75" stroke-linecap="round" stroke-linejoin="round"/>
<path d="M121.237 205.956C121.237 205.956 126.854 209.912 121.237 213.176" stroke="#7F7F7F" stroke-width="0.75" stroke-linecap="round" stroke-linejoin="round"/>
<path d="M134.422 229.449C134.422 229.449 131.29 230.896 129.453 230.371L132.852 232.51C132.852 232.51 131.595 230.362 134.422 229.449Z" fill="#263238" stroke="#263238" stroke-linecap="round" stroke-linejoin="round"/>
<path d="M122.875 234.999L121.561 236.779C121.561 236.779 130.281 242.311 135.717 242.624L135.403 238.826C131 238.397 126.735 237.094 122.875 234.999Z" fill="white" stroke="#263238" stroke-linecap="round" stroke-linejoin="round"/>
<path d="M133.499 234.345L137.145 235.58L135.403 238.798C135.403 238.798 134.527 240.024 133.499 234.345Z" fill="white" stroke="#263238" stroke-linecap="round" stroke-linejoin="round"/>
<path d="M137.145 235.58L138.802 239.056L135.403 238.826L137.145 235.58Z" fill="white" stroke="#263238" stroke-linecap="round" stroke-linejoin="round"/>
<path d="M122.037 228.084C122.985 228.265 123.963 228.227 124.893 227.974" stroke="#263238" stroke-linecap="round" stroke-linejoin="round"/>
<path d="M131.262 246.322C128.254 247.045 125.143 247.279 122.056 247.013C118.962 246.893 115.801 246.653 112.831 247.492C101.14 250.775 98.3415 256.03 97.4847 257.303C96.0282 259.442 96.9706 262.272 95.6949 264.531L106.281 261.083C106.368 259.257 106.933 257.483 107.922 255.927C108.911 254.371 110.293 253.083 111.936 252.185C115.253 250.432 119.097 249.852 122.808 250.544C126.387 251.134 130.367 252.545 133.394 250.618C136.422 248.691 137.307 244.312 138.735 241.398C137.393 241.204 136.631 243.002 135.793 243.786C134.51 244.965 132.957 245.834 131.262 246.322Z" fill="#999999" stroke="#263238" stroke-linecap="round" stroke-linejoin="round"/>
<path d="M135.403 238.826L135.927 241.739L137.088 243.039L138.773 241.389L138.802 239.056L135.403 238.826Z" fill="#999999" stroke="#263238" stroke-linecap="round" stroke-linejoin="round"/>
<path d="M134.165 223.594C133.309 224.259 132.344 224.78 131.309 225.134C129.957 225.484 133.88 226.554 134.879 225.549L134.165 223.594Z" stroke="#263238" stroke-linecap="round" stroke-linejoin="round"/>
<path d="M110.603 231.422C109.989 231.925 109.277 232.304 108.509 232.538C107.89 232.777 106.605 233.404 106.91 234.234C107.328 235.285 109.147 234.142 109.318 233.46" stroke="#263238" stroke-linecap="round" stroke-linejoin="round"/>
<path d="M99.6363 215.379C98.8435 215.522 98.0301 215.522 97.2372 215.379C96.5804 215.305 95.1429 215.287 95.0096 216.154C94.8763 217.269 97.0373 217.076 97.5228 216.559" stroke="#263238" stroke-linecap="round" stroke-linejoin="round"/>
<path d="M207.66 84.0495L209.735 85.285L207.755 86.4283C205.984 87.4517 204.623 89.7014 204.08 92.5043L203.661 94.671L203.262 92.5872C202.728 89.8212 201.405 87.5992 199.673 86.5481L197.597 85.285L199.549 84.1509C201.281 83.146 202.624 80.9608 203.185 78.2317L203.661 75.899L204.004 77.8168C204.518 80.675 205.87 82.98 207.66 84.0495Z" fill="white" stroke="#263238" stroke-linecap="round" stroke-linejoin="round"/>
<path d="M285.248 50.3965L287.323 51.632L285.343 52.7753C283.572 53.7987 282.211 56.0484 281.668 58.8513L281.249 61.018L280.84 58.925C280.307 56.159 278.984 53.937 277.251 52.8951L275.185 51.632L277.137 50.4979C278.869 49.4837 280.212 47.3078 280.773 44.5787L281.249 42.2368L281.592 44.1546C282.106 47.022 283.458 49.3362 285.248 50.3965Z" fill="white" stroke="#263238" stroke-linecap="round" stroke-linejoin="round"/>
<path d="M264.351 137.101C269.673 137.101 285.038 133.736 285.038 133.736H243.712C243.712 133.736 259.03 137.101 264.351 137.101Z" fill="#263238" stroke="#263238" stroke-linecap="round" stroke-linejoin="round"/>
<path d="M259.61 141.711H269.092V135.414H259.61V141.711Z" fill="#263238" stroke="#263238" stroke-linecap="round" stroke-linejoin="round"/>
<path d="M258.211 168.772H270.492V141.711H258.211V168.772Z" fill="#999999" stroke="#263238" stroke-linecap="round" stroke-linejoin="round"/>
<path d="M264.351 138.558H274.804L282.639 146.146" stroke="#263238" stroke-linecap="round" stroke-linejoin="round"/>
<path d="M243.712 172.552C243.711 172.701 243.745 172.849 243.811 172.984C243.877 173.118 243.974 173.237 244.093 173.331C244.213 173.425 244.353 173.491 244.503 173.526C244.653 173.56 244.809 173.561 244.959 173.53C248.72 172.727 260.001 170.432 264.399 170.432C268.797 170.432 280.078 172.727 283.839 173.53C283.989 173.56 284.144 173.557 284.293 173.522C284.443 173.487 284.582 173.42 284.701 173.327C284.82 173.233 284.917 173.115 284.983 172.981C285.05 172.847 285.085 172.701 285.086 172.552C285.086 171.954 284.875 171.375 284.487 170.91C284.099 170.445 283.557 170.123 282.953 169.998C278.546 169.076 268.493 167.094 264.399 167.094C260.305 167.094 250.243 169.086 245.835 169.998C245.234 170.126 244.696 170.449 244.31 170.914C243.924 171.378 243.713 171.956 243.712 172.552Z" fill="#263238" stroke="#263238" stroke-linecap="round" stroke-linejoin="round"/>
<path d="M281.497 173.963C281.495 174.642 281.701 175.306 282.089 175.871C282.477 176.436 283.03 176.877 283.677 177.138C284.323 177.399 285.036 177.469 285.723 177.337C286.411 177.206 287.043 176.88 287.539 176.401C288.035 175.921 288.374 175.31 288.511 174.645C288.648 173.979 288.579 173.289 288.311 172.662C288.043 172.035 287.589 171.498 287.007 171.121C286.424 170.744 285.739 170.542 285.038 170.542C284.101 170.542 283.201 170.902 282.538 171.544C281.874 172.185 281.499 173.055 281.497 173.963ZM283.125 173.963C283.125 173.598 283.237 173.242 283.446 172.938C283.655 172.635 283.952 172.399 284.3 172.259C284.648 172.12 285.031 172.083 285.4 172.154C285.77 172.226 286.109 172.401 286.375 172.659C286.641 172.917 286.823 173.246 286.896 173.603C286.97 173.961 286.932 174.332 286.788 174.669C286.644 175.006 286.4 175.294 286.087 175.496C285.774 175.699 285.405 175.807 285.029 175.807C284.524 175.807 284.04 175.613 283.683 175.267C283.325 174.921 283.125 174.452 283.125 173.963Z" fill="#3DB0F8" stroke="#263238" stroke-linecap="round" stroke-linejoin="round"/>
<path d="M260.848 173.963C260.846 174.642 261.052 175.306 261.44 175.871C261.828 176.436 262.381 176.877 263.028 177.138C263.675 177.399 264.387 177.469 265.075 177.337C265.762 177.206 266.394 176.88 266.89 176.401C267.387 175.921 267.725 175.31 267.862 174.645C268 173.979 267.93 173.289 267.662 172.662C267.394 172.035 266.941 171.498 266.358 171.121C265.775 170.744 265.09 170.542 264.389 170.542C263.452 170.542 262.553 170.902 261.889 171.544C261.225 172.185 260.851 173.055 260.848 173.963ZM262.476 173.963C262.476 173.598 262.588 173.242 262.797 172.938C263.006 172.635 263.303 172.399 263.651 172.259C263.999 172.12 264.382 172.083 264.751 172.154C265.121 172.226 265.46 172.401 265.726 172.659C265.993 172.917 266.174 173.246 266.247 173.603C266.321 173.961 266.283 174.332 266.139 174.669C265.995 175.006 265.751 175.294 265.438 175.496C265.125 175.699 264.757 175.807 264.38 175.807C264.127 175.812 263.875 175.768 263.64 175.677C263.404 175.587 263.19 175.452 263.009 175.28C262.828 175.108 262.684 174.903 262.586 174.677C262.488 174.451 262.438 174.208 262.438 173.963H262.476Z" fill="#3DB0F8" stroke="#263238" stroke-linecap="round" stroke-linejoin="round"/>
<path d="M240.551 173.963C240.544 174.643 240.745 175.31 241.13 175.878C241.514 176.447 242.065 176.893 242.711 177.158C243.357 177.423 244.071 177.496 244.76 177.368C245.45 177.24 246.084 176.916 246.583 176.438C247.082 175.96 247.424 175.349 247.563 174.683C247.703 174.016 247.635 173.325 247.368 172.696C247.101 172.067 246.648 171.529 246.064 171.151C245.481 170.772 244.795 170.57 244.093 170.57C243.16 170.57 242.265 170.926 241.602 171.562C240.939 172.197 240.562 173.06 240.551 173.963ZM242.179 173.963C242.179 173.598 242.291 173.242 242.5 172.938C242.71 172.635 243.007 172.399 243.355 172.259C243.703 172.12 244.086 172.083 244.455 172.154C244.824 172.226 245.163 172.401 245.43 172.659C245.696 172.917 245.877 173.246 245.951 173.603C246.024 173.961 245.987 174.332 245.842 174.669C245.698 175.006 245.454 175.294 245.141 175.496C244.828 175.699 244.46 175.807 244.083 175.807C243.578 175.807 243.094 175.613 242.737 175.267C242.38 174.921 242.179 174.452 242.179 173.963Z" fill="#3DB0F8" stroke="#263238" stroke-linecap="round" stroke-linejoin="round"/>
<path d="M284.648 146.146C284.648 146.524 284.532 146.893 284.316 147.207C284.099 147.52 283.792 147.765 283.432 147.909C283.071 148.054 282.675 148.092 282.293 148.018C281.911 147.944 281.56 147.763 281.284 147.496C281.008 147.229 280.821 146.889 280.745 146.519C280.669 146.148 280.708 145.765 280.857 145.416C281.006 145.067 281.259 144.769 281.583 144.559C281.907 144.35 282.288 144.238 282.677 144.238C283.2 144.238 283.701 144.439 284.071 144.797C284.44 145.155 284.648 145.64 284.648 146.146Z" fill="#3DB0F8" stroke="#263238" stroke-linecap="round" stroke-linejoin="round"/>
<path d="M261.257 123.133H234.506C233.704 123.134 232.91 122.982 232.168 122.686C231.427 122.389 230.753 121.954 230.185 121.405C229.617 120.856 229.167 120.205 228.86 119.487C228.553 118.769 228.394 118 228.394 117.223C228.394 115.653 229.038 114.148 230.185 113.038C231.331 111.927 232.885 111.304 234.506 111.304H261.257C262.877 111.306 264.429 111.931 265.573 113.041C266.717 114.151 267.36 115.655 267.36 117.223C267.36 118.791 266.717 120.294 265.572 121.402C264.428 122.51 262.876 123.133 261.257 123.133Z" fill="#263238" stroke="#999999" stroke-linecap="round" stroke-linejoin="round"/>
<path d="M266.884 123.133H240.123C238.505 123.133 236.952 122.51 235.808 121.402C234.664 120.294 234.021 118.791 234.021 117.223C234.021 115.655 234.663 114.151 235.807 113.041C236.952 111.931 238.504 111.306 240.123 111.304H266.884C268.503 111.306 270.055 111.931 271.199 113.041C272.343 114.151 272.986 115.655 272.986 117.223C272.986 118.791 272.343 120.294 271.199 121.402C270.054 122.51 268.502 123.133 266.884 123.133Z" fill="#263238" stroke="#999999" stroke-linecap="round" stroke-linejoin="round"/>
<path d="M286.771 124.203H290.655V108.031H286.771V124.203Z" fill="#263238" stroke="#263238" stroke-linecap="round" stroke-linejoin="round"/>
<path d="M293.787 96.8008H262.124C258.748 96.8008 256.012 99.4489 256.012 102.715C256.012 105.982 258.748 108.63 262.124 108.63H293.787C297.163 108.63 299.899 105.982 299.899 102.715C299.899 99.4489 297.163 96.8008 293.787 96.8008Z" fill="#263238" stroke="#999999" stroke-linecap="round" stroke-linejoin="round"/>
<path d="M264.466 137.101C269.778 137.101 285.153 133.736 285.153 133.736H243.779C243.779 133.736 259.144 137.101 264.466 137.101Z" fill="#263238" stroke="#263238" stroke-linecap="round" stroke-linejoin="round"/>
<path d="M229.308 61.9123H263.704C264.663 61.9098 265.612 62.0991 266.492 62.4685C267.371 62.838 268.163 63.3794 268.816 64.059C269.469 64.7386 269.971 65.5416 270.289 66.4176C270.607 67.2937 270.734 68.2239 270.663 69.15L267.941 105.108C267.813 106.806 267.027 108.395 265.739 109.555C264.452 110.714 262.759 111.359 261 111.359H232.031C230.272 111.359 228.578 110.715 227.289 109.555C226 108.396 225.211 106.807 225.081 105.108L222.359 69.15C222.289 68.225 222.418 67.2961 222.735 66.4213C223.053 65.5465 223.554 64.7445 224.206 64.0653C224.858 63.3862 225.648 62.8445 226.526 62.4741C227.403 62.1036 228.351 61.9124 229.308 61.9123Z" fill="#263238" stroke="#999999" stroke-linecap="round" stroke-linejoin="round"/>
<path d="M228.48 69.15L231.203 105.108C231.333 106.807 232.121 108.396 233.41 109.555C234.699 110.715 236.393 111.359 238.152 111.359H261C262.759 111.359 264.452 110.714 265.739 109.555C267.027 108.395 267.813 106.806 267.94 105.108L270.663 69.15C270.734 68.2239 270.607 67.2937 270.289 66.4176C269.971 65.5416 269.469 64.7386 268.816 64.059C268.163 63.3794 267.371 62.838 266.492 62.4685C265.612 62.0991 264.663 61.9098 263.704 61.9123H235.411C234.455 61.9149 233.509 62.108 232.634 62.4796C231.758 62.8511 230.971 63.3932 230.321 64.0721C229.671 64.7509 229.172 65.5521 228.855 66.4256C228.539 67.2992 228.411 68.2266 228.48 69.15Z" fill="#263238" stroke="#999999" stroke-linecap="round" stroke-linejoin="round"/>
<path d="M242.646 84.7502C243.771 84.7502 244.683 83.8669 244.683 82.7772C244.683 81.6875 243.771 80.8041 242.646 80.8041C241.521 80.8041 240.609 81.6875 240.609 82.7772C240.609 83.8669 241.521 84.7502 242.646 84.7502Z" fill="#263238" stroke="#999999" stroke-linecap="round" stroke-linejoin="round"/>
<path d="M258.934 84.7502C260.06 84.7502 260.972 83.8669 260.972 82.7772C260.972 81.6875 260.06 80.8041 258.934 80.8041C257.809 80.8041 256.897 81.6875 256.897 82.7772C256.897 83.8669 257.809 84.7502 258.934 84.7502Z" fill="#263238" stroke="#999999" stroke-linecap="round" stroke-linejoin="round"/>
<path d="M246.311 95.888C246.311 96.2782 246.192 96.6597 245.968 96.9842C245.744 97.3087 245.426 97.5616 245.053 97.7109C244.681 97.8602 244.271 97.8993 243.876 97.8232C243.481 97.747 243.118 97.5591 242.833 97.2832C242.548 97.0072 242.354 96.6557 242.276 96.2729C242.197 95.8902 242.237 95.4935 242.392 95.1329C242.546 94.7724 242.807 94.4643 243.142 94.2474C243.477 94.0306 243.871 93.9149 244.274 93.9149C244.814 93.9149 245.332 94.1228 245.714 94.4928C246.096 94.8628 246.311 95.3647 246.311 95.888Z" fill="#263238" stroke="#999999" stroke-linecap="round" stroke-linejoin="round"/>
<path d="M258.659 97.898C259.784 97.898 260.696 97.0146 260.696 95.9249C260.696 94.8352 259.784 93.9518 258.659 93.9518C257.533 93.9518 256.621 94.8352 256.621 95.9249C256.621 97.0146 257.533 97.898 258.659 97.898Z" fill="#263238" stroke="#999999" stroke-linecap="round" stroke-linejoin="round"/>
<path d="M254.003 121.326H295.291C298.147 121.326 300.413 124.433 300.413 128.278V129.2C300.413 133.045 298.119 136.152 295.291 136.152H254.003V121.326Z" fill="#263238" stroke="#999999" stroke-linecap="round" stroke-linejoin="round"/>
<path d="M233.964 136.143H256.345C259.358 136.143 261.8 133.777 261.8 130.859V126.609C261.8 123.691 259.358 121.326 256.345 121.326H233.964C230.951 121.326 228.509 123.691 228.509 126.609V130.859C228.509 133.777 230.951 136.143 233.964 136.143Z" fill="#263238" stroke="#999999" stroke-linecap="round" stroke-linejoin="round"/>
<path d="M248.862 124.203H252.747V108.031H248.862V124.203Z" fill="#999999" stroke="#263238" stroke-linecap="round" stroke-linejoin="round"/>
<path d="M255.879 96.8008H224.215C220.84 96.8008 218.103 99.4489 218.103 102.715C218.103 105.982 220.84 108.63 224.215 108.63H255.879C259.254 108.63 261.99 105.982 261.99 102.715C261.99 99.4489 259.254 96.8008 255.879 96.8008Z" fill="#263238" stroke="#999999" stroke-linecap="round" stroke-linejoin="round"/>
<path d="M231.707 60.4187L231.336 61.6357H231.46C233.866 61.9121 236.138 62.8552 238.004 64.3516C239.87 65.8481 241.25 67.8344 241.979 70.072C242.304 71.1154 242.838 72.0866 243.55 72.9302C246.263 75.8806 256.726 73.9721 256.726 73.9721C256.726 73.9721 262.248 72.1281 258.03 60.1421L257.973 59.9945C257.474 58.3511 256.451 56.9025 255.051 55.856C253.65 54.8094 251.944 54.2184 250.176 54.1675H239.571C237.738 54.246 235.982 54.8976 234.564 56.0246C233.146 57.1517 232.144 58.6934 231.707 60.4187Z" fill="#263238" stroke="#999999" stroke-linecap="round" stroke-linejoin="round"/>
<path d="M238.543 56.8597C240.529 58.5425 242.135 60.6041 243.26 62.9157C244.385 65.2272 245.006 67.7388 245.083 70.2933" stroke="#999999" stroke-linecap="round" stroke-linejoin="round"/>
<path d="M266.246 120.782L265.951 121.474H266.046C269.959 121.759 273.119 123.668 274.367 126.249C274.648 126.871 275.071 127.423 275.604 127.863C277.756 129.532 286.029 128.453 286.029 128.453C286.029 128.453 291.226 127.531 287.933 120.754C287.723 120.366 287.433 120.024 287.081 119.75C286.728 119.476 286.32 119.276 285.884 119.162C285.447 119.048 284.991 119.024 284.543 119.09C284.096 119.156 283.669 119.312 283.287 119.547C281.487 120.524 278.222 119.906 274.804 119.224C267.645 117.832 265.818 119.537 266.246 120.782Z" fill="#263238" stroke="#999999" stroke-linecap="round" stroke-linejoin="round"/>
<path d="M272.32 119.777C275.471 121.667 277.394 124.498 277.499 127.374" stroke="#263238" stroke-linecap="round" stroke-linejoin="round"/>
<path d="M249.538 98.4051C250.481 98.396 251.405 98.6582 252.193 99.1584C252.982 99.6585 253.599 100.374 253.967 101.215C254.335 102.055 254.438 102.982 254.261 103.879C254.084 104.776 253.637 105.601 252.975 106.251" stroke="#999999" stroke-linecap="round" stroke-linejoin="round"/>
<path d="M288.513 98.4051C289.455 98.3979 290.378 98.6614 291.165 99.1623C291.952 99.6632 292.568 100.379 292.934 101.219C293.301 102.059 293.403 102.985 293.226 103.881C293.049 104.777 292.602 105.602 291.94 106.251" fill="#263238"/>
<path d="M288.513 98.4051C289.455 98.3979 290.378 98.6614 291.165 99.1623C291.952 99.6632 292.568 100.379 292.934 101.219C293.301 102.059 293.403 102.985 293.226 103.881C293.049 104.777 292.602 105.602 291.94 106.251" stroke="#999999" stroke-linecap="round" stroke-linejoin="round"/>
<path d="M304.564 102.674L365.749 102.674V93.5553H304.564V102.674Z" fill="white" stroke="#263238" stroke-linecap="round" stroke-linejoin="round"/>
<path d="M282.782 102.674H308.22V93.5553H282.782V102.674Z" fill="white" stroke="#263238" stroke-linecap="round" stroke-linejoin="round"/>
<path d="M307.106 93.5553L367.72 93.5553V88.4014H307.106V93.5553Z" fill="#999999" stroke="#263238" stroke-linecap="round" stroke-linejoin="round"/>
<path d="M280.811 93.5553H307.106V88.4014H280.811V93.5553Z" fill="#999999" stroke="#263238" stroke-linecap="round" stroke-linejoin="round"/>
<path d="M360.58 177.393H362.569L363.274 102.683H360.58V177.393Z" fill="#999999" stroke="#263238" stroke-linecap="round" stroke-linejoin="round"/>
<path d="M358.599 177.393H360.58V102.683H357.885L358.599 177.393Z" fill="#858585" stroke="#263238" stroke-linecap="round" stroke-linejoin="round"/>
<path d="M334.361 177.393H336.351L337.056 102.683H334.361V177.393Z" fill="#999999" stroke="#263238" stroke-linecap="round" stroke-linejoin="round"/>
<path d="M332.381 177.393H334.362V102.683H331.667L332.381 177.393Z" fill="#858585" stroke="#263238" stroke-linecap="round" stroke-linejoin="round"/>
<path d="M311.142 177.393H313.132L313.836 102.683H311.142V177.393Z" fill="#999999" stroke="#263238" stroke-linecap="round" stroke-linejoin="round"/>
<path d="M309.162 177.393H311.142V102.683H308.448L309.162 177.393Z" fill="#858585" stroke="#263238" stroke-linecap="round" stroke-linejoin="round"/>
<path d="M288.732 177.393H290.722L291.426 102.683H288.732V177.393Z" fill="#999999" stroke="#263238" stroke-linecap="round" stroke-linejoin="round"/>
<path d="M286.752 177.393H288.732V102.683H286.038L286.752 177.393Z" fill="#858585" stroke="#263238" stroke-linecap="round" stroke-linejoin="round"/>
<path d="M313.836 102.683L313.427 173.917H360.027L360.58 102.683H313.836Z" fill="#999999" stroke="#263238" stroke-linecap="round" stroke-linejoin="round"/>
<path d="M321.376 168.062C326.542 168.886 331.774 169.254 337.008 169.159C342.234 169.263 347.46 168.911 352.621 168.108C352.747 168.449 352.941 168.762 353.192 169.03C354.201 170.155 356.857 169.03 356.857 169.03C356.857 169.03 357.876 166.108 356.857 164.992C356.638 164.752 356.257 164.725 356.134 164.439C355.058 162.042 356.981 157.478 356.99 152.545C357 147.612 355.086 143.058 356.162 140.66C356.6 139.738 357.657 139.231 357.657 138.088C357.657 136.945 356.6 136.474 356.172 135.516C355.106 133.118 357.019 128.554 357.029 123.631C357.038 118.708 355.125 114.134 356.21 111.737C356.334 111.451 356.714 111.433 356.933 111.193C357.952 110.078 356.933 107.146 356.933 107.146C356.933 107.146 354.277 106.03 353.268 107.146C353.011 107.422 352.992 107.911 352.687 108.068C349.908 109.736 343.758 106.98 337.075 106.97C330.392 106.961 324.232 109.736 321.462 108.022C321.167 107.846 321.148 107.348 320.891 107.1C319.882 105.984 317.225 107.1 317.225 107.1C317.225 107.1 316.207 110.022 317.225 111.147C317.444 111.387 317.825 111.414 317.949 111.7C319.025 114.088 317.102 118.652 317.092 123.585C317.083 128.518 318.996 133.072 317.911 135.469C317.482 136.391 316.426 136.899 316.426 138.042C316.426 139.185 317.482 139.665 317.911 140.623C318.977 143.011 317.064 147.575 317.054 152.499C317.045 157.422 318.958 161.995 317.873 164.393C317.74 164.678 317.359 164.706 317.149 164.946C316.131 166.052 317.149 168.984 317.149 168.984C317.149 168.984 319.805 170.1 320.814 168.984C321.06 168.714 321.251 168.401 321.376 168.062Z" stroke="#263238" stroke-miterlimit="10"/>
<path d="M288.732 102.683L288.57 173.963H308.905L308.448 102.683H288.732Z" fill="#999999" stroke="#263238" stroke-linecap="round" stroke-linejoin="round"/>
<path d="M364.273 79.6424H354.43V87.2212H364.273V79.6424Z" fill="#263238" stroke="white" stroke-linecap="round" stroke-linejoin="round"/>
<path d="M360.808 71.3444C360.88 71.5107 360.976 71.666 361.094 71.8054C360.913 71.7408 360.808 71.5841 360.808 71.3444Z" fill="#3DB0F8"/>
<path d="M367.472 55.7533C366.641 58.6535 366.03 61.6087 365.644 64.5953C365.241 67.5488 364.272 70.4035 362.788 73.0132C361.979 74.4976 360.827 73.4096 360.037 75.226C360.037 75.226 359.942 75.4657 359.894 75.6132C359.889 75.6561 359.889 75.6994 359.894 75.7423C359.961 75.1246 360.075 73.7692 359.694 73.299C358.542 71.8515 359.589 66.5315 362.76 61.313C365.121 57.4129 367.348 55.781 367.52 55.7257L367.472 55.7533Z" fill="#3DB0F8" stroke="#263238" stroke-linecap="round" stroke-linejoin="round"/>
<path d="M359.99 75.2536C359.914 75.521 359.847 75.7884 359.77 76.0558C359.77 76.0558 359.77 75.9083 359.77 75.77C359.765 75.7271 359.765 75.6837 359.77 75.6409C359.872 75.4934 359.946 75.3643 359.99 75.2536Z" fill="#999999" stroke="#263238" stroke-miterlimit="10"/>
<path d="M360.741 79.6424H357.952C357.447 79.6424 356.963 79.4481 356.606 79.1023C356.249 78.7564 356.048 78.2874 356.048 77.7984C356.048 77.3093 356.249 76.8403 356.606 76.4945C356.963 76.1486 357.447 75.9544 357.952 75.9544H360.741C361.246 75.9544 361.731 76.1486 362.088 76.4945C362.445 76.8403 362.645 77.3093 362.645 77.7984C362.645 78.2874 362.445 78.7564 362.088 79.1023C361.731 79.4481 361.246 79.6424 360.741 79.6424Z" fill="#263238" stroke="#999999" stroke-linecap="round" stroke-linejoin="round"/>
<path d="M364.197 81.4679H358.428V84.5382H364.197V81.4679Z" fill="white"/>
<path d="M309.2 87.424H343.472L347.299 77.3466H313.027L309.2 87.424Z" fill="#263238" stroke="#263238" stroke-linecap="round" stroke-linejoin="round"/>
<path d="M351.145 87.3779H316.873L313.046 77.1898H347.318L351.145 87.3779Z" fill="#263238" stroke="#999999" stroke-linecap="round" stroke-linejoin="round"/>
<path d="M328.535 83.3857L328.802 84.0956C329.116 84.9439 328.868 85.4233 328.021 85.4233C327.616 85.4154 327.224 85.2824 326.902 85.0436C326.58 84.8048 326.345 84.4727 326.231 84.0956L325.194 81.3296C324.88 80.4814 325.137 79.9927 325.984 79.9927C326.389 80.0031 326.78 80.1384 327.1 80.3788C327.42 80.6193 327.653 80.9523 327.764 81.3296L327.964 81.8367H327.145L326.936 81.2743C326.793 80.8963 326.565 80.7488 326.289 80.7488C326.012 80.7488 325.898 80.8963 326.041 81.2743L327.117 84.1325C327.26 84.5105 327.479 84.6488 327.755 84.6488C328.031 84.6488 328.154 84.5105 328.012 84.1325L327.726 83.3765L328.535 83.3857Z" fill="white"/>
<path d="M330.858 85.368H330.001L328.002 80.0665H328.869L329.725 82.3346H330.677L329.821 80.0665H330.696L332.686 85.368H331.81L330.953 83.0906H330.001L330.858 85.368Z" fill="white"/>
<path d="M331.544 80.0665H332.41L334.4 85.368H333.533L331.544 80.0665Z" fill="white"/>
<path d="M334.933 82.2977H336.113L336.399 83.0538H335.218L335.799 84.6119H337.284L337.57 85.368H335.218L333.2 80.0665H335.552L335.828 80.8225H334.342L334.933 82.2977Z" fill="white"/>
<path d="M338.046 82.4176H339.16L339.445 83.1736H338.331L339.16 85.368H338.293L336.304 80.0665H338.579L338.864 80.8225H337.446L338.046 82.4176Z" fill="white"/>
<path d="M135.755 415.518H167.628H190.943H194.979H198.425H221.235H224.034H246.016H248.958H252.994H267.245H271.282H274.728H297.538H300.347H322.319H325.26H329.297H343.548H347.585H351.041H373.85H376.649H393.909H397.879H398.631H401.563H405.6H425.373H431.999" stroke="#263238" stroke-linecap="round" stroke-linejoin="round"/>
<path d="M124.902 415.518H129.986" stroke="#263238" stroke-linecap="round" stroke-linejoin="round"/>
<path d="M54.9971 415.518H119.809" stroke="#263238" stroke-linecap="round" stroke-linejoin="round"/>
<path d="M38.2894 415.518H49.9133" stroke="#263238" stroke-linecap="round" stroke-linejoin="round"/>
</svg>
